<mxfile host="app.diagrams.net" agent="Mozilla/5.0 (X11; Linux x86_64) AppleWebKit/537.36 (KHTML, like Gecko) Chrome/130.0.0.0 Safari/537.36" version="25.0.3">
  <diagram name="Page-1" id="bqiobACBWWAAbmYHSyjc">
    <mxGraphModel dx="904" dy="391" grid="1" gridSize="10" guides="1" tooltips="1" connect="1" arrows="1" fold="1" page="1" pageScale="1" pageWidth="10000" pageHeight="10000" math="0" shadow="0">
      <root>
        <mxCell id="0" />
        <mxCell id="1" parent="0" />
        <mxCell id="jH7tx9crEBYIiyomnPDE-1" value="&lt;font color=&quot;#ffffff&quot;&gt;42&lt;/font&gt;" style="ellipse;whiteSpace=wrap;html=1;aspect=fixed;fillColor=#000000;" vertex="1" parent="1">
          <mxGeometry x="1320" y="160" width="40" height="40" as="geometry" />
        </mxCell>
        <mxCell id="jH7tx9crEBYIiyomnPDE-63" value="&lt;font color=&quot;#ffffff&quot;&gt;22&lt;/font&gt;" style="ellipse;whiteSpace=wrap;html=1;aspect=fixed;fillColor=#FF0000;" vertex="1" parent="1">
          <mxGeometry x="1120" y="240" width="40" height="40" as="geometry" />
        </mxCell>
        <mxCell id="_2uGcsCHyoNTPdwvndDd-1" value="&lt;font color=&quot;#ffffff&quot;&gt;43&lt;/font&gt;" style="ellipse;whiteSpace=wrap;html=1;aspect=fixed;fillColor=#FF0000;" vertex="1" parent="1">
          <mxGeometry x="1520" y="240" width="40" height="40" as="geometry" />
        </mxCell>
      </root>
    </mxGraphModel>
  </diagram>
</mxfile>
